 <svg version="1.0" xmlns="http://www.w3.org/2000/svg"  width="300.000000pt" height="300.000000pt" viewBox="0 0 300.000000 300.000000"  preserveAspectRatio="xMidYMid meet">  <g transform="translate(0.000000,300.000000) scale(0.100000,-0.100000)" fill="#000000" stroke="none"> <path d="M0 1500 l0 -1500 1500 0 1500 0 0 1500 0 1500 -1500 0 -1500 0 0 -1500z m1197 1013 c31 -18 35 -16 28 10 -5 19 -4 20 5 4 6 -9 9 -21 5 -26 -3 -5 -1 -13 5 -16 8 -5 8 -11 0 -20 -13 -16 -21 -75 -12 -89 3 -6 8 -20 9 -31 2 -11 8 -24 13 -29 6 -6 10 -17 10 -25 -1 -13 -4 -12 -15 3 -8 11 -15 16 -15 10 0 -5 -5 -2 -10 6 -5 8 -7 23 -4 34 4 11 2 16 -4 12 -5 -3 -9 2 -8 12 0 10 -6 17 -16 17 -9 0 -20 3 -23 7 -4 3 5 5 20 4 19 -3 25 1 24 13 -1 9 3 27 8 41 8 18 7 26 -1 29 -6 2 -17 11 -25 18 -35 36 -187 -34 -163 -75 5 -7 13 -6 25 3 12 8 14 15 8 20 -6 3 -11 1 -11 -4 0 -6 -5 -11 -12 -11 -18 0 7 23 28 26 22 3 83 -54 81 -76 -1 -10 -4 -17 -8 -14 -10 6 -20 -26 -12 -39 8 -12 10 -18 12 -39 1 -7 8 -5 20 6 17 16 18 16 16 -7 -2 -19 1 -23 19 -21 11 1 25 3 29 3 5 1 5 6 2 11 -3 6 -1 10 4 10 15 0 8 -63 -7 -66 -7 -1 -8 0 -2 3 5 2 10 9 10 15 0 6 -9 3 -20 -7 -12 -11 -20 -13 -20 -6 0 6 -7 14 -15 17 -8 3 -31 21 -51 39 -32 30 -34 33 -13 29 22 -5 23 -4 5 7 -16 9 -21 9 -30 -3 -10 -13 -13 -13 -24 -2 -7 8 -25 14 -40 13 -25 0 -26 -1 -6 -9 30 -12 39 -29 15 -27 -11 0 -18 4 -15 8 2 4 -5 9 -15 12 -14 3 -17 0 -14 -14 3 -12 14 -19 29 -19 13 0 24 -4 24 -10 0 -5 -5 -9 -11 -7 -6 1 -14 -4 -16 -10 -3 -7 0 -13 7 -13 6 0 9 4 6 8 -3 5 5 8 17 7 18 -2 22 -8 20 -30 -1 -16 -5 -35 -7 -42 -6 -15 -26 -18 -26 -4 0 5 -15 32 -34 60 -19 27 -36 55 -38 61 -4 13 -88 -19 -88 -34 1 -6 21 -31 45 -56 24 -24 42 -46 40 -48 -3 -3 -11 1 -20 8 -11 9 -15 9 -15 1 0 -7 -4 -9 -10 -6 -6 3 -7 -1 -4 -10 4 -8 17 -18 30 -21 13 -3 24 -14 24 -23 0 -13 2 -13 9 -2 5 8 11 9 15 3 3 -5 -7 -18 -22 -28 -22 -14 -25 -14 -14 -1 11 13 10 17 -7 26 -11 6 -27 11 -36 11 -23 0 -95 75 -95 100 0 19 -2 19 -40 -6 -30 -20 -38 -30 -28 -36 9 -6 7 -8 -7 -4 -14 4 -37 -9 -80 -46 -100 -86 -136 -108 -169 -107 l-31 1 33 8 c35 8 99 49 129 82 18 21 18 21 -7 8 -14 -7 -37 -21 -52 -31 -14 -11 -30 -19 -35 -19 -4 0 0 5 10 11 16 10 24 39 10 39 -4 0 -18 -10 -32 -22 l-26 -23 23 27 c13 14 37 32 53 39 26 10 28 14 16 28 -8 9 -17 24 -20 34 -4 10 -11 16 -16 12 -6 -3 -8 -11 -6 -18 2 -7 -7 -25 -21 -42 -15 -16 -23 -23 -19 -15 5 8 15 23 23 33 8 9 13 20 10 23 -9 9 -60 -63 -56 -80 2 -8 -1 -15 -7 -15 -29 0 12 65 82 130 26 24 48 49 48 54 0 6 9 9 19 7 12 -2 16 1 10 10 -4 7 -4 10 1 6 4 -4 13 -4 19 1 47 37 256 129 307 135 16 1 39 12 52 23 35 32 83 53 122 53 21 0 35 5 35 13 0 7 3 8 8 2 4 -5 17 -16 29 -22z m184 -51 c14 -15 26 -31 26 -35 3 -22 14 -16 29 17 10 20 25 36 34 36 16 0 60 -27 72 -44 13 -19 9 -31 -4 -14 -7 9 -25 23 -39 32 -25 16 -26 15 -52 -24 -14 -22 -24 -40 -22 -40 2 0 24 9 49 20 l46 19 15 -29 c17 -34 19 -69 4 -90 -8 -12 -9 -10 -4 8 4 12 1 37 -5 56 l-11 33 -42 -15 c-38 -14 -43 -19 -39 -42 2 -15 -3 -50 -11 -78 -9 -28 -13 -60 -10 -71 3 -12 1 -21 -6 -21 -6 0 -11 7 -11 15 0 8 -9 15 -19 15 -11 0 -21 6 -24 13 -2 6 -8 9 -12 4 -5 -4 7 -21 25 -37 19 -17 28 -30 22 -30 -16 0 -107 88 -99 96 4 4 14 1 24 -7 11 -9 14 -10 9 -1 -8 13 15 17 28 5 25 -25 52 2 40 40 -4 12 -2 17 4 13 12 -7 22 16 22 54 0 27 -21 59 -41 61 -5 1 -15 2 -21 3 -7 1 -12 8 -11 17 4 24 -40 21 -59 -4 l-17 -22 6 24 c4 16 3 22 -5 17 -6 -3 -9 -15 -7 -26 2 -11 -1 -20 -6 -20 -6 0 -8 -4 -4 -9 3 -5 1 -12 -5 -16 -6 -4 -10 6 -10 24 0 16 5 33 10 36 6 3 10 17 10 29 0 22 3 23 48 19 35 -2 53 -10 73 -31z m-91 -72 c-7 -4 -10 -12 -6 -18 3 -6 2 -13 -3 -16 -11 -7 -22 20 -15 38 3 8 12 12 21 9 11 -4 12 -8 3 -13z m28 -17 c-1 -5 4 -19 11 -33 l12 -25 -20 25 c-10 13 -17 28 -15 32 7 10 15 10 12 1z m80 -23 c-1 -34 -22 -36 -24 -2 -1 12 3 19 7 16 5 -3 9 0 9 5 0 6 2 11 4 11 3 0 4 -14 4 -30z m-87 -51 c11 -11 14 -21 8 -30 -6 -10 -9 -11 -9 -1 0 6 -9 12 -20 12 -11 0 -20 5 -20 10 0 6 5 10 12 10 6 0 3 10 -8 22 -19 22 -19 22 1 8 10 -8 27 -22 36 -31z m-236 -19 c-3 -5 -11 -10 -16 -10 -6 0 -7 5 -4 10 3 6 11 10 16 10 6 0 7 -4 4 -10z m35 -20 c0 -11 5 -19 12 -17 6 1 19 -18 29 -43 13 -33 19 -41 24 -28 4 9 2 26 -5 37 -6 12 -7 21 -2 21 19 0 34 -30 31 -64 -2 -20 2 -41 9 -48 23 -23 12 -32 -12 -9 l-23 22 -6 -23 c-4 -12 0 -35 8 -50 12 -24 11 -28 -1 -28 -8 0 -13 3 -12 8 1 4 -4 18 -11 31 -8 14 -11 38 -8 59 5 27 0 43 -22 76 -27 40 -36 76 -19 76 4 0 8 -9 8 -20z m175 -38 c6 -17 22 -42 35 -55 14 -14 31 -32 38 -41 14 -18 32 -21 32 -6 0 6 -8 10 -17 11 -12 1 -9 4 7 8 14 5 29 6 33 3 18 -9 117 -7 117 3 0 6 3 5 8 -1 4 -6 24 -17 46 -24 26 -8 34 -15 26 -20 -13 -8 -36 -4 -55 11 -6 4 -24 6 -39 5 -16 -2 -42 0 -58 4 -31 10 -33 8 -17 -23 9 -19 7 -18 -10 3 -11 14 -21 19 -21 12 0 -14 19 -54 30 -62 3 -3 16 -22 29 -43 13 -20 27 -34 33 -31 7 4 8 2 4 -4 -4 -7 4 -31 18 -55 l25 -42 -25 -43 c-14 -23 -29 -40 -34 -37 -11 6 10 45 23 45 4 0 6 4 2 9 -3 5 -1 12 5 16 12 7 -13 60 -78 163 -34 54 -51 72 -68 72 -12 0 -29 11 -38 24 -8 14 -24 27 -35 31 -20 6 -51 61 -51 90 0 27 24 11 35 -23z m-332 3 c-3 -9 -8 -14 -10 -11 -3 3 -2 9 2 15 9 16 15 13 8 -4z m147 -75 c0 -36 -2 -80 -6 -98 -4 -21 -2 -38 7 -49 12 -14 12 -16 -1 -11 -8 2 -20 20 -27 39 -8 23 -12 27 -13 14 -1 -33 -24 -64 -60 -84 -29 -15 -36 -25 -38 -55 -4 -40 38 -128 88 -184 18 -21 26 -40 23 -49 -4 -11 -2 -14 5 -9 8 4 10 2 6 -8 -9 -25 26 -32 144 -30 77 1 117 6 130 15 15 13 16 12 3 -3 -16 -21 -2 -24 21 -5 22 17 67 100 61 114 -4 11 34 39 42 31 2 -2 -17 -40 -42 -86 l-45 -82 -156 2 -157 3 -73 125 c-68 116 -72 128 -67 169 6 51 40 95 67 88 11 -3 18 0 18 10 0 8 -5 11 -11 7 -18 -11 -2 46 22 79 11 15 16 27 12 27 -11 0 -103 -93 -103 -104 0 -5 -7 -17 -15 -26 -8 -9 -17 -41 -18 -70 -5 -73 -46 -102 -93 -64 -18 15 -18 15 0 10 21 -7 70 20 61 33 -3 5 -32 7 -64 4 -58 -5 -59 -5 -75 24 -31 61 -44 233 -18 233 5 0 23 -16 42 -35 19 -19 43 -35 55 -35 23 0 80 -52 68 -63 -3 -4 -2 -7 3 -7 5 0 30 18 56 40 34 30 45 45 41 60 -3 11 -12 20 -20 20 -8 0 -11 5 -8 10 7 12 46 14 44 3 -3 -19 2 -33 12 -33 6 0 8 9 3 22 -6 19 -5 21 8 11 11 -10 17 -4 33 32 11 24 23 41 27 37 4 -4 7 -36 8 -72z m-110 56 c0 -3 -4 -8 -10 -11 -5 -3 -10 -1 -10 4 0 6 5 11 10 11 6 0 10 -2 10 -4z m-215 -25 c3 -5 2 -12 -3 -15 -5 -3 -9 1 -9 9 0 17 3 19 12 6z m791 -16 c86 -26 138 -73 243 -221 12 -18 21 -39 19 -46 -3 -7 -27 21 -55 62 -101 148 -139 177 -264 201 -76 15 -106 34 -39 26 25 -4 68 -13 96 -22z m-261 -40 c29 -14 29 -14 -20 -8 -64 7 -94 22 -45 22 19 0 49 -6 65 -14z m1073 0 c19 -21 55 -88 44 -81 -16 10 -15 1 3 -34 16 -31 32 -42 21 -15 -8 22 2 18 15 -6 8 -17 8 -20 -1 -14 -8 5 -11 3 -8 -6 3 -8 10 -13 16 -12 7 2 9 -4 5 -14 -4 -10 -2 -14 5 -9 6 3 14 1 18 -5 4 -8 3 -9 -4 -5 -7 4 -12 4 -12 -1 1 -11 26 -43 31 -39 2 3 4 -8 4 -24 0 -15 -3 -26 -7 -24 -4 3 -12 -4 -17 -15 -14 -26 -14 -34 1 -25 7 4 8 3 4 -5 -4 -6 -11 -9 -16 -6 -5 3 -33 -37 -62 -89 -40 -72 -59 -97 -78 -101 -32 -7 -266 -4 -278 4 -17 12 -154 253 -157 277 -1 13 2 21 7 18 5 -3 8 2 6 12 -2 11 2 18 9 17 6 -1 14 4 17 13 3 8 2 12 -4 9 -20 -12 -9 6 18 32 15 15 21 23 13 18 -8 -4 -1 15 14 43 15 28 32 49 36 46 9 -5 13 9 10 36 -2 13 -1 13 8 0 9 -13 14 -9 13 10 -1 10 317 5 326 -5z m-709 -62 c2 -2 -3 -3 -11 -3 -9 0 -19 7 -22 16 -6 15 -4 15 11 3 10 -7 20 -15 22 -16z m-1202 -15 c-3 -8 -6 -5 -6 6 -1 11 2 17 5 13 3 -3 4 -12 1 -19z m683 -24 c0 -2 -9 0 -20 6 -11 6 -20 13 -20 16 0 2 9 0 20 -6 11 -6 20 -13 20 -16z m270 -14 c0 -15 -5 -12 -26 11 -19 22 -19 22 4 10 12 -6 22 -16 22 -21z m310 -34 c0 -6 -11 5 -25 24 -14 19 -25 36 -25 39 0 10 49 -53 50 -63z m-530 12 c0 -6 -7 -5 -15 2 -8 7 -15 17 -15 22 0 6 7 5 15 -2 8 -7 15 -17 15 -22z m-10 -114 c11 -25 24 -43 29 -40 5 3 15 -2 22 -12 13 -15 12 -16 -3 -3 -11 8 -18 9 -18 3 0 -12 39 -42 53 -42 5 0 4 6 -3 14 -10 13 -8 13 13 3 14 -6 24 -14 21 -18 -2 -3 8 -5 21 -3 14 1 28 -2 31 -8 4 -6 10 -5 15 3 7 10 11 11 17 3 4 -7 16 -14 27 -17 41 -10 -56 -7 -105 4 -65 14 -102 45 -130 111 l-22 52 -20 -27 c-31 -42 -56 -52 -79 -31 -10 9 -19 27 -19 40 0 25 43 78 54 67 3 -4 -3 -17 -15 -29 -26 -28 -23 -69 6 -69 13 0 26 12 37 35 15 30 16 36 3 50 -8 9 -12 20 -8 23 8 9 48 -50 73 -109z m275 96 c3 -6 -1 -7 -9 -4 -18 7 -21 14 -7 14 6 0 13 -4 16 -10z m-248 -42 c-3 -7 -5 -2 -5 12 0 14 2 19 5 13 2 -7 2 -19 0 -25z m-507 -13 c-7 -8 -25 -15 -40 -15 -38 0 -61 -10 -53 -23 3 -6 1 -7 -6 -3 -15 10 -98 -29 -134 -63 -77 -70 -75 -194 5 -291 14 -18 13 -12 -6 22 -21 38 -25 52 -16 68 6 10 9 25 8 32 -2 7 3 12 10 10 9 -2 12 5 8 20 -3 13 -3 17 0 10 7 -16 45 40 49 73 6 52 59 106 88 88 6 -3 7 -1 4 4 -10 16 149 17 172 1 16 -11 5 -13 -73 -13 -67 0 -90 -3 -88 -12 1 -7 -1 -13 -5 -12 -5 1 -17 -2 -29 -6 -27 -9 -116 -162 -116 -200 0 -25 -1 -27 -8 -10 -7 16 -9 16 -9 3 -1 -13 68 -148 85 -167 2 -3 15 6 29 19 21 19 35 24 73 22 36 -2 44 0 32 8 -12 9 -10 10 9 5 17 -5 21 -4 16 5 -5 9 -2 10 14 5 13 -4 21 -2 21 5 0 7 7 10 15 6 8 -3 15 0 15 6 0 6 3 9 6 5 4 -3 15 4 25 16 14 16 17 17 13 5 -9 -28 4 -21 20 10 8 15 15 22 16 15 1 -38 -121 -103 -193 -103 -28 0 -86 -19 -88 -28 -8 -33 -6 -83 2 -110 9 -27 13 -31 25 -21 21 18 241 6 282 -15 29 -15 30 -15 24 6 -3 13 -1 19 5 15 6 -4 13 -20 17 -37 3 -18 10 -29 16 -25 5 3 10 0 10 -8 0 -8 10 -29 23 -48 13 -19 37 -59 55 -90 l31 -55 -50 -84 c-28 -46 -62 -106 -75 -132 l-24 -48 -153 0 c-108 0 -157 4 -167 13 -12 10 -12 9 -1 -5 12 -16 34 -18 165 -20 l151 -2 -149 -3 c-126 -3 -152 -1 -167 13 -10 9 -15 23 -12 32 4 10 2 13 -5 8 -8 -5 -10 -2 -6 9 4 10 2 15 -7 13 -9 -2 -13 4 -11 16 2 10 -1 15 -7 11 -7 -4 -8 0 -4 11 5 13 3 15 -7 9 -9 -5 -11 -4 -6 3 8 13 -17 56 -26 46 -3 -3 -5 3 -4 13 0 10 -4 17 -11 16 -6 -1 -14 4 -17 13 -3 8 -1 12 4 9 6 -3 7 1 4 9 -3 9 -10 13 -15 10 -5 -3 -6 3 -2 12 3 10 2 15 -3 12 -5 -4 -9 4 -9 17 0 13 4 21 9 17 5 -3 6 2 3 12 -4 11 -3 15 4 11 6 -4 9 1 7 11 -2 11 2 18 9 17 6 -1 14 4 17 13 4 9 2 12 -5 8 -6 -3 -4 7 4 22 8 16 17 49 21 74 4 25 13 72 20 105 12 55 11 93 -2 80 -8 -8 -43 55 -36 66 3 5 1 8 -4 7 -11 -4 -54 47 -76 89 -18 37 -22 137 -5 180 24 63 98 116 209 149 93 27 95 27 80 9z m527 -2 c-4 -3 5 -16 18 -29 14 -13 25 -26 25 -30 0 -4 8 -13 18 -20 9 -7 13 -14 9 -14 -16 0 -96 89 -84 94 18 7 21 7 14 -1z m-530 -39 c-3 -3 -12 -4 -19 -1 -8 3 -5 6 6 6 11 1 17 -2 13 -5z m1128 -13 c-4 -13 0 -20 17 -24 12 -4 25 -1 30 6 4 7 10 3 16 -13 5 -14 39 -72 75 -130 l66 -105 -23 -40 c-12 -22 -47 -82 -76 -132 l-53 -93 -86 1 -86 2 60 9 c33 5 70 10 82 11 12 1 29 11 37 22 23 30 19 44 -4 16 -11 -13 -20 -20 -20 -17 0 6 104 151 131 184 19 22 1 79 -36 115 -19 19 -35 39 -35 46 0 6 -11 29 -24 50 -14 21 -22 42 -18 46 4 4 3 5 -3 4 -5 -2 -39 2 -75 8 -36 7 -74 12 -85 13 -71 2 -104 -3 -137 -20 -31 -16 -37 -17 -42 -4 -3 8 -2 12 4 9 5 -3 14 4 20 15 10 18 21 20 100 20 49 0 101 -5 115 -10 23 -9 28 -7 32 10 3 11 10 20 15 20 5 0 7 -8 3 -19z m-800 -71 c10 -11 14 -20 9 -20 -15 0 -44 56 -43 82 1 18 3 15 9 -10 4 -18 16 -42 25 -52z m835 60 c0 -5 -2 -10 -4 -10 -3 0 -8 5 -11 10 -3 6 -1 10 4 10 6 0 11 -4 11 -10z m-876 -144 c18 -28 41 -65 51 -83 l18 -31 -44 -74 c-24 -40 -46 -77 -49 -83 -3 -5 -13 -22 -23 -37 -12 -17 -16 -35 -12 -48 7 -23 23 -18 34 13 8 20 8 20 13 -1 4 -12 2 -20 -3 -16 -5 3 -9 -11 -9 -32 0 -24 12 -56 35 -94 29 -47 41 -59 68 -63 20 -3 38 1 48 9 14 12 19 11 39 -6 13 -11 19 -20 15 -20 -5 0 -17 7 -27 16 -16 16 -18 15 -24 -1 -5 -11 2 -26 19 -43 22 -22 30 -24 50 -15 14 7 27 23 29 38 6 31 -15 97 -34 107 -7 3 -34 16 -59 28 -29 13 -49 29 -53 43 -5 19 -8 20 -17 7 -9 -13 -10 -13 -6 1 3 9 -3 26 -14 37 -10 12 -19 26 -19 33 0 6 -7 9 -15 5 -20 -7 -19 3 5 42 11 18 17 38 14 44 -4 6 -3 8 3 5 6 -4 21 14 34 38 13 25 28 45 34 46 47 3 187 1 191 -4 4 -3 18 -4 33 -1 17 3 35 -3 51 -16 21 -18 22 -21 5 -16 -130 33 -250 33 -285 1 -11 -10 -18 -25 -15 -32 2 -8 1 -11 -5 -8 -11 7 -43 -52 -35 -66 4 -5 3 -9 -2 -8 -23 4 -24 -3 -3 -26 23 -24 23 -24 37 -5 8 11 21 20 29 20 8 0 14 5 14 10 0 14 38 50 53 50 6 0 -1 -11 -18 -24 -27 -22 -28 -25 -11 -32 13 -5 23 -2 31 9 17 24 28 21 15 -3 -6 -11 -18 -20 -26 -20 -9 0 -14 -6 -11 -12 2 -7 10 -12 16 -10 12 2 -25 -57 -44 -70 -5 -4 13 -16 39 -28 61 -26 73 -41 81 -110 6 -48 5 -56 -15 -72 -32 -26 -51 -22 -93 17 -22 21 -47 35 -63 35 -14 0 -23 -4 -19 -10 4 -6 10 -8 15 -5 5 3 11 1 15 -5 3 -5 1 -10 -6 -10 -7 0 -9 -3 -5 -7 4 -5 13 -8 19 -8 7 0 12 -9 12 -20 0 -19 7 -20 135 -21 131 -2 170 5 170 28 0 6 -10 3 -22 -8 l-23 -19 19 22 c10 12 23 21 28 20 6 -1 13 4 16 12 3 9 0 11 -9 6 -8 -5 -11 -4 -6 1 5 5 14 9 20 9 5 0 12 6 15 14 3 9 0 11 -8 6 -18 -11 -12 -2 78 120 21 29 2 90 -39 118 -14 10 -16 16 -8 19 9 3 6 11 -8 25 -12 12 -19 24 -16 27 4 3 2 6 -4 6 -12 0 -38 49 -42 79 0 5 -9 12 -18 14 -14 4 -12 5 5 6 15 1 25 -7 32 -24 9 -23 33 -63 135 -224 21 -34 23 -35 86 -34 59 1 61 1 24 -7 -22 -5 -48 -6 -59 -3 -10 3 -16 1 -14 -3 3 -5 8 -17 11 -27 6 -16 8 -16 38 2 37 23 64 15 79 -22 6 -16 9 -17 9 -5 1 19 38 30 116 34 59 4 185 20 170 23 -17 3 19 21 42 21 15 0 28 10 38 30 18 36 19 45 1 62 -17 18 -4 53 26 69 l23 12 -22 -25 c-13 -13 -23 -27 -23 -31 0 -15 31 -6 42 13 18 28 28 25 15 -5 -7 -14 -20 -25 -30 -25 -11 0 -17 -5 -14 -12 2 -7 9 -12 15 -11 6 2 9 -4 6 -12 -4 -8 -10 -15 -15 -15 -5 0 -8 -3 -7 -7 5 -17 -25 -54 -49 -64 -14 -5 -24 -11 -22 -13 9 -7 176 14 310 40 121 23 144 30 133 41 -7 7 -16 22 -19 33 -4 11 -10 18 -15 15 -12 -8 -40 35 -33 51 3 8 1 14 -4 14 -11 0 -50 80 -46 92 2 5 -4 8 -13 8 -14 0 -15 -2 -3 -16 12 -15 11 -16 -6 -11 -102 30 -253 34 -278 7 -10 -10 -9 -11 1 -6 7 5 1 -15 -14 -43 -16 -28 -31 -47 -34 -41 -9 14 -42 -48 -34 -63 4 -6 3 -9 -1 -5 -13 12 -55 -64 -49 -87 6 -18 5 -19 -10 -4 -16 14 -11 25 57 145 l75 129 161 1 c160 1 161 0 167 -22 3 -13 12 -28 20 -35 18 -15 18 -5 -2 29 -15 25 -15 26 1 7 24 -29 40 -59 26 -51 -17 11 -13 -10 10 -49 22 -37 39 -43 19 -6 -6 12 -8 21 -6 21 9 0 36 -57 30 -62 -8 -9 29 -78 42 -78 17 0 66 -59 58 -71 -7 -12 -55 -11 -73 0 -10 7 -19 4 -28 -7 -18 -24 -16 -32 10 -33 17 -1 16 -3 -7 -8 -23 -5 -38 -20 -66 -69 -20 -34 -39 -59 -43 -56 -4 4 -3 12 2 18 15 19 63 108 59 111 -2 1 -14 6 -28 10 -22 7 -23 6 -11 -8 7 -9 11 -22 8 -29 -4 -9 -6 -8 -6 3 -1 9 -10 24 -22 35 -20 18 -21 18 -75 -11 l-54 -29 27 -15 c16 -8 46 -20 68 -27 33 -10 35 -13 14 -13 -14 -1 -51 12 -82 29 -43 23 -63 28 -92 23 l-37 -6 58 -24 c87 -35 121 -52 209 -108 142 -91 178 -149 123 -202 -28 -27 -34 -28 -136 -29 -64 -1 -150 5 -212 16 -119 20 -147 15 -105 -18 18 -14 42 -22 67 -22 21 0 57 -9 79 -21 39 -19 42 -19 60 -3 11 10 19 12 19 6 0 -7 -4 -12 -10 -12 -5 0 -16 -16 -24 -35 -8 -19 -26 -40 -40 -46 -25 -12 -25 -12 23 -35 27 -12 55 -33 62 -46 10 -19 7 -18 -16 6 -27 29 -28 29 -42 10 -15 -18 -15 -18 -9 2 6 18 1 24 -25 33 -80 28 -94 -1 -19 -38 28 -13 50 -28 50 -33 0 -4 13 -8 28 -8 16 0 37 -9 46 -19 16 -18 16 -20 -6 -35 -29 -21 -56 -20 -93 3 -37 22 -238 236 -241 256 -3 21 -37 64 -51 65 -6 0 -13 14 -15 31 -2 23 -10 34 -27 41 -21 7 -22 6 -11 -7 7 -9 10 -18 7 -21 -9 -9 -39 24 -32 35 7 12 -26 31 -55 31 -18 0 -19 -3 -10 -20 6 -11 24 -27 40 -35 40 -21 153 -116 146 -123 -3 -3 -16 3 -29 14 -12 11 -31 26 -41 34 -18 13 -19 13 -12 0 5 -8 -8 2 -29 23 -20 20 -41 37 -45 37 -14 0 -81 90 -75 101 5 7 14 4 26 -7 11 -9 22 -14 25 -11 4 3 19 0 35 -9 16 -8 29 -10 29 -5 0 12 39 35 47 28 2 -3 -4 -14 -15 -25 l-20 -20 40 -17 c25 -10 45 -12 50 -7 12 12 90 -10 96 -27 2 -6 8 -8 13 -5 6 3 16 0 24 -6 8 -7 26 -10 40 -8 14 3 25 2 25 -2 0 -4 18 -12 40 -18 33 -8 39 -8 30 3 -6 7 -24 18 -40 25 -17 7 -30 17 -30 22 0 5 6 7 13 4 6 -3 20 -9 30 -12 9 -4 17 -10 17 -14 0 -4 9 -10 21 -13 12 -3 19 -10 15 -15 -10 -17 29 -8 42 10 7 10 24 18 38 18 17 0 24 6 24 19 0 10 8 22 17 25 15 6 15 8 3 16 -21 14 -33 12 -27 -3 5 -14 -19 -54 -28 -45 -3 3 2 24 10 48 8 23 15 58 15 76 0 19 5 34 10 34 6 0 10 5 10 11 0 5 -4 8 -8 5 -5 -3 -19 4 -30 15 -12 11 -22 17 -22 13 0 -4 -9 1 -21 12 l-21 19 6 -40 c3 -22 3 -32 0 -22 -3 9 -12 17 -20 17 -9 0 -12 -5 -8 -12 4 -6 3 -8 -4 -5 -12 8 -4 47 11 47 11 0 0 15 -11 15 -4 0 -13 4 -19 8 -9 6 -11 3 -7 -10 5 -13 2 -12 -10 5 -19 24 -75 57 -83 48 -3 -3 -1 -11 4 -18 6 -7 13 -24 16 -38 6 -24 5 -24 -8 -6 -14 19 -15 19 -15 -7 0 -16 8 -30 20 -37 16 -8 19 -17 14 -33 -4 -12 -12 -25 -18 -29 -6 -4 -7 -10 -4 -14 4 -4 3 -15 -3 -26 -7 -14 -16 -17 -32 -12 -31 9 -32 12 -12 34 13 15 20 42 23 100 l5 80 -36 15 c-45 19 -53 19 -60 1 -4 -10 1 -13 16 -10 12 2 16 2 9 -2 -6 -3 -9 -11 -6 -16 4 -7 2 -8 -5 -4 -6 4 -21 4 -33 0 -20 -6 -19 -8 15 -26 32 -16 37 -23 37 -54 0 -63 -39 -114 -71 -93 -8 5 -25 9 -39 9 -24 0 -22 3 19 40 25 22 49 40 55 40 6 0 0 -9 -14 -20 -14 -11 -21 -20 -17 -20 4 0 2 -10 -4 -22 -11 -21 -11 -22 5 -9 9 8 15 20 12 28 -3 7 -1 13 4 13 6 0 10 -10 10 -22 0 -19 2 -20 10 -8 15 23 12 77 -5 84 -8 3 -14 2 -12 -2 1 -4 -3 -7 -8 -7 -6 0 -9 7 -8 15 1 8 -3 22 -7 31 -7 12 -4 23 10 39 11 13 20 27 20 32 0 15 -29 8 -38 -9 -9 -14 -10 -14 -16 5 -4 12 -15 22 -24 22 -9 0 -29 7 -44 14 -25 13 -28 13 -28 -2 0 -13 -5 -12 -20 8 -10 14 -22 21 -26 17 -4 -4 -2 -7 4 -7 6 0 13 -8 16 -18 3 -10 30 -30 60 -44 53 -26 67 -48 66 -107 -1 -14 -2 -14 -11 2 -5 9 -8 21 -4 26 3 5 1 12 -5 16 -5 3 -11 1 -11 -4 -1 -6 -2 -16 -3 -23 -2 -18 -22 -20 -36 -3 -10 13 -9 15 7 15 16 0 19 5 15 25 -2 14 -8 22 -13 19 -5 -3 -7 -9 -5 -13 3 -4 -1 -8 -9 -8 -10 0 -12 4 -5 12 14 16 -2 32 -32 34 -50 3 -58 4 -58 13 0 10 3 10 34 -2 30 -11 32 -8 10 25 -13 20 -25 25 -59 25 -42 0 -65 -15 -78 -52 -6 -18 10 -24 101 -43 17 -4 32 -10 32 -15 0 -5 10 -11 23 -13 16 -3 13 -5 -10 -6 -18 0 -33 4 -33 10 0 6 -8 8 -17 5 -10 -3 -31 1 -48 10 -44 23 -61 25 -63 6 -5 -45 0 -59 30 -87 34 -32 67 -37 93 -15 13 11 14 10 9 -4 -3 -9 -1 -16 5 -16 6 0 11 5 11 10 0 7 6 7 18 2 9 -5 28 -8 42 -6 24 4 24 3 6 -11 -12 -9 -32 -12 -58 -9 -25 4 -45 1 -55 -8 -12 -9 -15 -10 -9 0 5 9 0 12 -21 10 -31 -2 -53 7 -53 23 0 5 -8 17 -18 27 -16 16 -21 17 -40 4 -27 -18 -56 -3 -70 38 -12 34 -19 36 -46 15 -11 -8 -26 -15 -34 -15 -19 0 -41 -29 -42 -53 0 -28 26 -49 47 -38 10 5 43 13 73 19 30 6 63 14 74 18 33 13 13 -19 -24 -38 -26 -13 -36 -15 -42 -5 -6 9 -10 9 -16 -1 -6 -9 -18 -11 -36 -6 -26 6 -65 -13 -49 -25 19 -14 88 -114 85 -123 -2 -6 5 -19 14 -29 21 -23 131 -29 118 -6 -6 9 -5 9 7 0 23 -19 131 -21 147 -3 8 9 11 9 7 2 -5 -9 -1 -12 10 -10 10 2 20 -2 22 -9 3 -9 -36 -13 -155 -15 -101 -2 -159 1 -159 7 0 6 -25 52 -56 104 -31 51 -54 97 -51 102 3 5 0 9 -6 9 -6 0 -15 11 -21 24 -9 20 -4 35 36 107 27 46 49 93 49 104 1 11 8 19 15 17 9 -2 11 3 7 13 -3 9 -2 13 3 10 16 -10 24 16 9 31 -12 12 -21 1 -68 -79 -30 -50 -59 -101 -65 -112 -28 -55 -28 -55 -185 -55 l-147 0 -48 83 c-26 45 -58 98 -70 117 -12 19 -28 52 -35 73 -9 28 -15 36 -23 28 -7 -7 -67 -11 -164 -11 -140 0 -153 2 -163 19 -16 31 -12 37 11 12 20 -21 28 -22 150 -20 70 1 126 5 124 10 -3 4 0 11 6 15 8 5 9 3 4 -6 -5 -8 -3 -11 6 -8 8 3 16 18 19 34 3 17 14 33 28 39 12 5 22 13 22 18 0 4 -5 5 -11 2 -6 -4 6 15 25 43 20 27 36 54 36 61 0 6 5 11 10 11 28 0 -3 101 -35 114 -8 3 -15 9 -14 13 4 21 -2 33 -13 27 -8 -5 -9 -2 -5 9 3 10 3 17 -2 17 -4 0 -13 12 -20 27 -10 21 -14 24 -21 13 -5 -9 -2 -23 9 -39 29 -42 33 -51 22 -51 -6 0 -11 5 -11 11 0 6 -9 22 -19 35 -17 22 -20 22 -26 6 -4 -9 -11 -46 -16 -82 l-7 -65 1 70 c2 55 7 77 25 102 12 17 22 44 22 60 0 26 3 24 26 -21 13 -27 40 -72 58 -100z m-481 85 c-18 -15 -33 -33 -33 -39 0 -7 -5 -12 -10 -12 -18 0 20 60 43 70 34 14 34 11 0 -19z m844 23 c-3 -3 -12 -4 -19 -1 -8 3 -5 6 6 6 11 1 17 -2 13 -5z m98 -4 c3 -5 -1 -10 -10 -10 -9 0 -13 5 -10 10 3 6 8 10 10 10 2 0 7 -4 10 -10z m339 -22 c-10 -18 -21 -46 -25 -63 -7 -29 -7 -29 -8 -4 -1 24 9 50 32 87 17 25 17 11 1 -20z m-929 2 c-3 -5 -11 -10 -16 -10 -6 0 -7 5 -4 10 3 6 11 10 16 10 6 0 7 -4 4 -10z m680 -22 c-7 -23 -7 -23 9 -3 8 11 16 15 16 9 0 -15 -25 -36 -33 -27 -4 3 -7 -3 -7 -14 0 -11 -6 -33 -14 -48 -8 -15 -12 -35 -9 -44 4 -13 3 -13 -5 -2 -6 9 -7 23 -1 38 15 40 0 25 -26 -27 -37 -72 -31 -123 8 -67 l16 22 0 -23 c1 -13 -3 -20 -9 -17 -6 3 -13 -1 -16 -9 -5 -14 30 -77 48 -84 5 -2 6 -8 2 -13 -3 -5 1 -12 10 -15 9 -3 12 -12 9 -21 -5 -12 -3 -14 7 -8 8 5 11 4 7 -2 -11 -18 31 -71 60 -76 25 -4 24 -4 -7 -5 -34 -2 -37 1 -79 78 -24 44 -49 77 -54 73 -6 -3 -7 -1 -3 5 4 7 2 12 -5 12 -7 0 -9 3 -6 6 4 4 -3 24 -15 46 -20 36 -21 40 -6 66 101 177 118 202 103 150z m354 -33 c16 -20 16 -20 -6 -1 -13 11 -22 29 -22 40 1 20 2 20 6 1 3 -11 12 -29 22 -40z m-1067 13 c-7 -7 -12 -8 -12 -2 0 14 12 26 19 19 2 -3 -1 -11 -7 -17z m813 -16 c-3 -3 -10 0 -17 6 -13 10 -18 12 -39 12 -5 0 -7 5 -4 10 4 7 17 4 35 -7 16 -9 27 -19 25 -21z m53 24 c-7 -8 -15 -12 -17 -11 -5 6 10 25 20 25 5 0 4 -6 -3 -14z m-31 -38 c-3 -8 -6 -5 -6 6 -1 11 2 17 5 13 3 -3 4 -12 1 -19z m-34 -23 c23 -32 17 -32 -13 0 -13 14 -19 25 -14 25 5 0 17 -12 27 -25z m-225 -14 c-7 -12 -16 -21 -21 -21 -4 0 0 11 9 25 20 30 31 26 12 -4z m-748 5 c0 -3 -4 -8 -10 -11 -5 -3 -10 -1 -10 4 0 6 5 11 10 11 6 0 10 -2 10 -4z m901 -32 c-11 -15 -21 -24 -21 -20 0 12 33 57 37 52 3 -3 -4 -17 -16 -32z m245 -26 c20 -45 28 -80 28 -121 1 -54 -2 -61 -32 -88 -28 -25 -39 -29 -90 -27 l-57 1 61 6 c90 9 126 51 94 112 -7 13 -7 19 0 19 5 0 10 -8 10 -17 0 -9 3 -13 6 -10 10 10 -36 148 -50 153 -7 3 -13 11 -13 19 0 30 15 13 43 -47z m-1362 37 c-4 -8 -8 -15 -10 -15 -2 0 -4 7 -4 15 0 8 4 15 10 15 5 0 7 -7 4 -15z m140 -10 c-9 -14 -14 -34 -11 -46 3 -13 1 -19 -6 -16 -7 2 -11 13 -9 23 4 20 29 64 37 64 3 0 -2 -11 -11 -25z m246 21 c0 -2 3 -13 6 -23 5 -16 4 -16 -8 -2 -7 9 -20 18 -28 22 -10 4 -8 6 8 6 12 1 22 -1 22 -3z m-179 -43 c-12 -20 -14 -14 -5 12 4 9 9 14 11 11 3 -2 0 -13 -6 -23z m1199 17 c0 -5 -2 -10 -4 -10 -3 0 -8 5 -11 10 -3 6 -1 10 4 10 6 0 11 -4 11 -10z m-220 -14 c0 -8 -9 -24 -20 -37 l-19 -24 17 37 c19 41 22 45 22 24z m773 -1 c-3 -9 -8 -14 -10 -11 -3 3 -2 9 2 15 9 16 15 13 8 -4z m-1590 -23 c-3 -12 -10 -22 -15 -22 -5 0 -7 3 -5 8 2 4 7 16 11 26 9 25 17 16 9 -12z m-173 -6 c0 -2 -8 -10 -17 -17 -16 -13 -17 -12 -4 4 13 16 21 21 21 13z m145 -46 c-10 -11 -23 -20 -29 -20 -6 0 0 9 14 20 32 25 38 25 15 0z m-255 -20 c0 -5 -2 -10 -4 -10 -3 0 -8 5 -11 10 -3 6 -1 10 4 10 6 0 11 -4 11 -10z m60 -16 c0 -2 -7 -4 -15 -4 -8 0 -15 4 -15 10 0 5 7 7 15 4 8 -4 15 -8 15 -10z m40 12 c0 -2 -7 -7 -16 -10 -8 -3 -12 -2 -9 4 6 10 25 14 25 6z m560 -26 c0 -5 -2 -10 -4 -10 -3 0 -8 5 -11 10 -3 6 -1 10 4 10 6 0 11 -4 11 -10z m610 -29 c0 -35 -25 -60 -43 -42 -9 10 -8 11 7 5 13 -5 17 -4 12 4 -4 7 -2 12 5 12 7 0 9 10 7 25 -3 14 -1 25 3 25 5 0 9 -13 9 -29z m-739 -24 c-10 -9 -11 -8 -5 6 3 10 9 15 12 12 3 -3 0 -11 -7 -18z m1019 19 c0 -2 -8 -10 -17 -17 -16 -13 -17 -12 -4 4 13 16 21 21 21 13z m290 -16 c6 -11 9 -20 7 -20 -2 0 -12 9 -22 20 -10 11 -13 20 -7 20 6 0 16 -9 22 -20z m-951 -24 c-3 -3 -11 5 -18 17 -13 21 -12 21 5 5 10 -10 16 -20 13 -22z m182 17 c12 -16 12 -17 -1 -6 -8 6 -26 13 -40 16 l-25 4 26 2 c15 0 33 -7 40 -16z m73 -29 c3 -8 2 -12 -4 -9 -6 3 -10 10 -10 16 0 14 7 11 14 -7z m-18 -54 c13 -8 22 -20 20 -27 -3 -7 -1 -14 4 -14 6 -1 15 -2 21 -3 6 0 16 -9 23 -18 7 -10 19 -18 27 -18 8 0 21 -5 29 -10 11 -8 8 -9 -12 -4 -18 4 -28 2 -28 -5 0 -6 -7 -11 -15 -11 -8 0 -15 4 -15 9 0 4 -21 30 -46 57 -27 29 -47 61 -50 79 -4 30 -4 30 6 4 6 -14 22 -32 36 -39z m385 6 c-12 -12 -21 -32 -21 -44 0 -12 -4 -22 -9 -22 -15 0 -1 53 20 76 10 11 20 27 20 35 1 8 3 7 6 -4 3 -11 -4 -29 -16 -41z m238 15 c10 -7 7 -9 -12 -8 -15 1 -27 5 -27 10 0 10 22 9 39 -2z m111 -5 c0 -2 -8 -10 -17 -17 -16 -13 -17 -12 -4 4 13 16 21 21 21 13z m-65 -24 c-3 -3 -11 0 -18 7 -9 10 -8 11 6 5 10 -3 15 -9 12 -12z m-918 2 c-3 -3 -12 -4 -19 -1 -8 3 -5 6 6 6 11 1 17 -2 13 -5z m488 -84 c3 -5 1 -10 -4 -10 -6 0 -11 5 -11 10 0 6 2 10 4 10 3 0 8 -4 11 -10z m-62 -7 c-7 -2 -19 -2 -25 0 -7 3 -2 5 12 5 14 0 19 -2 13 -5z m-753 -23 c0 -5 -2 -10 -4 -10 -3 0 -8 5 -11 10 -3 6 -1 10 4 10 6 0 11 -4 11 -10z m-35 -40 c10 -11 16 -20 13 -20 -3 0 -13 9 -23 20 -10 11 -16 20 -13 20 3 0 13 -9 23 -20z m1511 -15 c-6 -24 -81 -84 -92 -73 -3 3 12 15 32 27 20 12 41 35 47 51 13 35 22 32 13 -5z m-651 -13 c-3 -3 -11 0 -18 7 -9 10 -8 11 6 5 10 -3 15 -9 12 -12z m-130 -22 c-3 -5 -14 -10 -23 -9 -14 0 -13 2 3 9 27 11 27 11 20 0z m635 -70 c-6 -11 -13 -20 -16 -20 -2 0 0 9 6 20 6 11 13 20 16 20 2 0 0 -9 -6 -20z m-857 -69 c-2 -3 -10 4 -17 15 -11 15 -12 22 -3 33 10 12 13 9 18 -15 3 -16 4 -31 2 -33z m547 43 c0 -2 -7 -4 -15 -4 -8 0 -15 4 -15 10 0 5 7 7 15 4 8 -4 15 -8 15 -10z m-186 -26 c-34 -27 -62 -34 -42 -11 12 15 43 31 62 32 5 1 -4 -9 -20 -21z m26 -13 c-7 -8 -17 -12 -22 -9 -6 4 -5 10 3 15 22 14 33 10 19 -6z m342 -40 c-2 -16 -8 -32 -13 -33 -5 -2 -6 -8 -3 -13 7 -12 -24 -49 -40 -49 -31 1 -38 17 -22 55 9 20 16 46 16 57 0 16 6 19 33 16 29 -3 32 -6 29 -33z m-868 -10 c7 -16 43 -78 80 -137 66 -108 74 -124 57 -113 -6 3 -15 -3 -20 -14 -14 -26 -14 -34 1 -25 7 4 8 3 4 -5 -4 -6 -11 -9 -16 -6 -11 7 -113 -172 -106 -184 16 -25 -26 -31 -175 -28 l-154 3 157 2 c86 1 159 5 161 10 3 4 -70 5 -163 2 -142 -4 -167 -3 -162 9 3 9 1 12 -6 7 -8 -5 -10 -2 -6 9 4 10 2 15 -7 13 -9 -2 -13 4 -11 16 2 10 -1 15 -7 11 -7 -4 -8 0 -4 11 4 11 2 15 -4 11 -6 -4 -10 1 -9 11 0 9 -4 16 -11 15 -8 -2 -10 4 -6 14 4 11 3 14 -5 9 -8 -5 -10 -1 -5 10 4 11 3 15 -5 10 -6 -3 -14 -1 -18 5 -5 8 -3 9 6 4 8 -5 11 -3 8 6 -3 8 -10 13 -16 12 -7 -2 -9 4 -5 14 4 11 3 14 -5 9 -8 -4 -10 -2 -6 7 3 8 0 18 -7 23 -8 5 -10 3 -5 -7 4 -8 0 -5 -8 5 -9 11 -16 25 -16 30 0 6 5 4 10 -4 7 -11 10 -12 10 -2 0 8 25 56 55 108 31 52 53 100 49 106 -4 6 -3 8 3 5 5 -3 17 7 27 24 l17 30 156 -3 155 -3 12 -30z m542 -32 c9 -12 13 -14 14 -5 0 10 4 9 16 -2 8 -9 19 -14 24 -11 5 3 11 1 15 -5 8 -13 4 -13 -51 1 -25 7 -44 17 -44 25 0 19 10 18 26 -3z m101 11 c-3 -3 -12 -4 -19 -1 -8 3 -5 6 6 6 11 1 17 -2 13 -5z m-506 -47 c12 -22 12 -22 -10 -3 -11 11 -21 23 -21 28 0 14 19 -1 31 -25z m563 4 c3 -3 -14 -5 -36 -3 -23 3 -35 8 -29 12 13 8 59 2 65 -9z m163 -46 c8 -9 13 -18 11 -21 -3 -2 -13 5 -23 16 -21 23 -11 27 12 5z m-359 -100 c-3 -36 -18 -31 -18 6 0 17 4 28 10 24 5 -3 9 -17 8 -30z m441 -165 c-1 -24 -1 -23 -11 5 -5 17 -18 49 -29 72 -29 64 -22 66 11 3 16 -30 29 -66 29 -80z m-915 -75 c-9 -14 -18 -25 -21 -25 -5 0 5 18 20 38 17 22 18 13 1 -13z"/> <path d="M991 2427 c-6 -16 -9 -33 -5 -38 3 -5 2 -9 -3 -8 -22 5 -92 -15 -114 -32 l-24 -19 28 10 c16 5 36 10 45 9 9 0 -11 -10 -46 -20 -34 -11 -60 -24 -57 -29 4 -6 2 -10 -4 -10 -6 0 -8 -7 -5 -15 4 -8 1 -15 -5 -15 -6 0 -11 6 -11 14 0 8 -4 17 -9 20 -4 3 -6 -5 -4 -17 3 -14 -2 -29 -11 -36 -13 -11 -16 -11 -16 3 0 9 -4 16 -9 16 -13 0 -86 -79 -83 -90 1 -6 -5 -10 -13 -10 -29 0 -94 -32 -89 -44 3 -9 22 -4 65 17 32 15 57 33 54 38 -4 5 1 9 10 9 9 0 29 8 43 19 71 49 167 101 233 126 82 31 105 45 71 45 -33 0 -26 15 8 16 26 1 29 -2 24 -22 -5 -20 -3 -23 15 -19 26 5 51 29 51 49 0 16 -38 42 -48 32 -3 -3 0 -6 6 -6 7 0 12 -3 12 -7 0 -5 -26 -9 -57 -11 -50 -3 -55 -1 -44 12 7 8 11 21 8 28 -3 8 -9 1 -16 -15z m-8 -69 c-13 -6 -23 -16 -23 -22 0 -6 -4 -4 -9 4 -13 19 -7 25 26 27 27 2 27 1 6 -9z m-123 -58 c0 -5 -7 -7 -15 -4 -8 4 -15 8 -15 10 0 2 7 4 15 4 8 0 15 -4 15 -10z"/> <path d="M915 2424 c-22 -8 -47 -17 -55 -21 -8 -3 -17 -7 -20 -7 -20 -4 -87 -37 -148 -73 -41 -24 -79 -40 -84 -36 -6 3 -8 1 -4 -5 3 -6 -8 -20 -25 -33 -22 -15 -27 -24 -18 -29 13 -9 51 9 43 21 -2 4 4 13 14 20 15 13 16 12 3 -3 -15 -20 -7 -22 35 -8 16 5 47 11 69 13 42 4 62 27 23 27 -12 0 -29 4 -36 9 -8 5 4 8 30 7 37 -1 52 5 97 42 42 33 62 42 92 42 35 0 39 3 39 25 0 29 -1 29 -55 9z m-80 -43 c-3 -5 -23 -23 -44 -41 -29 -22 -41 -27 -47 -18 -4 7 -4 10 1 6 4 -4 26 8 48 27 41 36 53 42 42 26z"/> <path d="M623 2225 c-56 -25 -64 -38 -36 -54 23 -12 61 8 91 48 28 38 15 39 -55 6z"/> <path d="M1043 2243 c-7 -2 -13 -11 -13 -19 0 -7 6 -11 13 -8 8 3 14 11 14 19 0 8 -1 15 -1 14 -1 0 -7 -3 -13 -6z"/> <path d="M832 2231 c-11 -6 -8 -14 12 -34 14 -14 26 -31 26 -37 0 -20 16 -9 26 17 15 43 -27 78 -64 54z"/> <path d="M1069 2166 c-8 -16 -8 -30 -1 -42 8 -14 10 -9 14 24 4 48 2 51 -13 18z"/> <path d="M741 2111 c-10 -7 -11 -13 -1 -30 14 -27 50 -42 68 -29 13 11 17 32 4 24 -11 -7 -64 29 -55 37 9 10 1 8 -16 -2z"/> <path d="M1055 2089 c-4 -6 -5 -12 -2 -15 2 -3 7 2 10 11 7 17 1 20 -8 4z"/> <path d="M823 2052 c-17 -11 0 -34 20 -26 9 3 17 12 17 20 0 15 -18 18 -37 6z"/> <path d="M737 2016 c8 -44 16 -49 84 -54 72 -5 83 2 68 47 -8 22 -15 29 -22 22 -7 -7 -7 -14 1 -24 7 -8 9 -16 6 -20 -5 -5 -15 -1 -101 40 l-42 21 6 -32z"/> <path d="M776 1942 c-3 -5 6 -14 20 -21 14 -6 23 -7 19 -1 -3 5 9 8 30 6 20 -1 38 2 42 6 9 15 0 17 -44 9 -24 -5 -46 -4 -51 1 -6 6 -12 6 -16 0z"/> <path d="M2260 2121 c24 -13 90 -21 90 -10 0 5 -10 10 -22 10 -13 1 -36 3 -53 5 -20 2 -25 0 -15 -5z"/> <path d="M2062 2098 c-6 -8 -8 -19 -4 -23 4 -5 2 -5 -5 -1 -7 4 -18 -5 -28 -23 -19 -38 -19 -52 0 -27 8 11 15 15 15 9 0 -13 -25 -35 -32 -27 -3 3 -22 -25 -42 -61 -27 -50 -35 -73 -30 -93 9 -37 33 -83 55 -108 11 -11 32 -45 47 -75 l27 -54 104 -3 c58 -1 117 2 133 7 18 6 26 7 23 1 -4 -6 -2 -10 3 -10 9 0 33 25 47 50 8 13 7 13 -10 0 -17 -14 -18 -14 -6 8 7 12 16 20 21 17 5 -3 14 5 21 17 12 22 11 22 -7 8 -10 -8 -4 2 13 23 18 20 40 52 49 70 9 17 21 35 26 38 15 10 -21 86 -49 105 -20 13 -23 18 -12 25 10 6 10 9 2 9 -7 0 -24 22 -38 50 -31 60 -55 70 -205 77 -85 4 -108 3 -118 -9z m301 -88 c-6 -7 -23 23 -23 40 0 8 6 4 13 -10 8 -14 12 -27 10 -30z m-246 34 c-3 -3 -12 -4 -19 -1 -8 3 -5 6 6 6 11 1 17 -2 13 -5z m33 -39 c10 -12 7 -19 -14 -38 -29 -27 -35 -50 -9 -40 15 6 15 5 0 -13 -10 -10 -30 -34 -45 -52 l-27 -34 -27 22 c-15 12 -26 29 -25 38 4 23 57 100 57 82 0 -8 -9 -26 -20 -40 -23 -30 -25 -53 -6 -69 10 -9 18 -7 34 6 29 25 39 71 18 79 -21 8 -20 16 5 48 23 29 41 33 59 11z m244 -31 c3 -8 2 -12 -4 -9 -6 3 -10 10 -10 16 0 14 7 11 14 -7z m-177 -30 c-3 -3 -12 -4 -19 -1 -8 3 -5 6 6 6 11 1 17 -2 13 -5z m57 -3 c4 -5 -3 -7 -14 -4 -23 6 -26 13 -6 13 8 0 17 -4 20 -9z m56 -15 c0 -3 -4 -8 -10 -11 -5 -3 -10 -1 -10 4 0 6 5 11 10 11 6 0 10 -2 10 -4z m-331 -156 l23 -35 -26 30 c-14 17 -26 34 -26 39 0 11 0 11 29 -34z"/> <path d="M2108 1999 c-21 -12 -24 -39 -5 -39 7 0 18 5 25 12 13 13 16 38 5 38 -5 0 -16 -5 -25 -11z"/> <path d="M2380 2088 c0 -8 7 -21 15 -28 19 -16 19 -1 0 24 -12 16 -15 17 -15 4z"/> <path d="M2000 2050 c-6 -11 -8 -20 -6 -20 3 0 10 9 16 20 6 11 8 20 6 20 -3 0 -10 -9 -16 -20z"/> <path d="M560 1800 c-6 -11 -8 -20 -6 -20 3 0 10 9 16 20 6 11 8 20 6 20 -3 0 -10 -9 -16 -20z"/> <path d="M542 1268 c-15 -80 -15 -91 -1 -83 14 9 -15 -59 -41 -95 -11 -15 -20 -33 -20 -39 0 -17 39 -91 66 -127 13 -17 24 -36 24 -43 0 -7 5 -9 11 -5 7 4 10 1 7 -7 -7 -20 11 -51 25 -43 7 4 9 4 5 -1 -16 -18 12 -30 61 -27 35 3 49 8 44 15 -4 7 1 6 11 -2 25 -21 109 -18 143 5 24 15 26 15 14 1 -18 -23 2 -22 21 1 8 9 25 35 37 57 21 37 13 31 -25 -20 -9 -12 -8 -7 3 12 9 18 27 43 39 56 29 32 74 104 74 119 0 25 -47 109 -68 124 -12 8 -22 25 -22 38 0 35 -39 63 -104 75 -61 11 -236 15 -236 6 0 -3 9 -24 21 -46 30 -59 23 -108 -18 -134 -22 -13 -32 -27 -30 -40 4 -33 40 -25 57 12 9 19 23 33 33 33 16 0 16 -2 -2 -22 -12 -12 -23 -30 -26 -39 -9 -27 -43 -34 -65 -14 -23 21 -21 65 3 90 22 21 21 34 -3 65 -21 27 -27 75 -10 85 6 3 7 -1 4 -12 -5 -17 -5 -17 6 0 8 12 8 22 1 35 -6 9 -11 13 -11 7 -1 -5 -5 -2 -9 9 -5 13 -11 0 -19 -46z m388 -82 c0 -5 -7 -3 -15 4 -8 7 -15 20 -15 28 0 13 3 12 15 -4 8 -10 15 -23 15 -28z m-214 -8 c4 -6 3 -8 -3 -5 -6 4 -15 -5 -22 -20 -6 -14 -14 -23 -17 -20 -5 5 24 57 32 57 1 0 6 -5 10 -12z m124 -54 c14 -8 17 -13 7 -10 -10 3 -25 6 -33 6 -8 0 -14 5 -14 10 0 14 10 12 40 -6z m-280 0 c0 -8 -19 -13 -24 -6 -3 5 1 9 9 9 8 0 15 -2 15 -3z m185 -4 c-11 -5 -27 -9 -35 -9 -9 0 -8 4 5 9 11 5 27 9 35 9 9 0 8 -4 -5 -9z m190 -10 c-3 -5 -12 -10 -18 -10 -7 0 -6 4 3 10 19 12 23 12 15 0z m-102 -41 c25 -19 26 -24 20 -82 -6 -69 -16 -87 -47 -88 -19 -1 -19 -2 4 -10 21 -7 19 -8 -10 -4 -49 7 -63 25 -20 25 50 0 57 8 62 69 5 48 2 58 -18 78 -28 28 -46 29 -85 6 -31 -19 -43 -45 -37 -84 2 -17 10 -23 33 -24 17 -1 37 -5 44 -9 8 -5 17 -3 23 5 8 12 9 11 5 -1 -2 -10 -16 -15 -38 -15 -25 0 -33 -4 -31 -15 1 -8 -9 -1 -23 15 -36 44 -34 95 6 129 37 31 77 33 112 5z m-59 -60 c-9 -10 -27 -18 -38 -18 -19 2 -19 2 2 6 13 3 28 16 35 30 6 14 13 20 15 14 2 -7 -4 -21 -14 -32z m47 3 c-6 -11 -7 -22 -4 -26 3 -3 1 -6 -5 -6 -7 0 -12 2 -12 5 0 10 24 55 27 51 3 -2 0 -13 -6 -24z m-266 -55 c9 -15 15 -27 12 -27 -11 0 -47 68 -46 86 0 14 3 12 9 -7 4 -14 15 -38 25 -52z m315 -41 c0 -2 -8 -10 -17 -17 -16 -13 -17 -12 -4 4 13 16 21 21 21 13z"/> <path d="M586 1244 c-6 -15 3 -46 16 -54 13 -10 16 -54 5 -70 -9 -12 -9 -13 3 -3 20 19 27 57 17 98 -3 11 -6 23 -6 26 -2 14 -30 17 -35 3z"/> <path d="M1915 1429 c-4 -6 -5 -12 -2 -15 2 -3 7 2 10 11 7 17 1 20 -8 4z"/> <path d="M2017 1483 c-4 -3 -7 -11 -7 -17 0 -6 5 -5 12 2 6 6 9 14 7 17 -3 3 -9 2 -12 -2z"/> <path d="M2420 1420 c6 -11 13 -20 16 -20 2 0 0 9 -6 20 -6 11 -13 20 -16 20 -2 0 0 -9 6 -20z"/> <path d="M1076 1381 c-17 -18 -17 -21 -1 -45 21 -31 31 -33 45 -5 26 48 -9 89 -44 50z"/> <path d="M2345 1296 c-55 -11 -58 -13 -38 -24 23 -13 57 -6 47 9 -3 5 7 4 21 -1 42 -16 96 -12 112 8 13 16 14 15 8 -5 -5 -18 -1 -24 19 -29 13 -3 33 -4 43 -2 16 3 15 6 -9 31 -24 24 -34 27 -85 26 -32 -1 -85 -7 -118 -13z"/> <path d="M2210 1268 c-25 -5 -108 -12 -185 -16 -137 -7 -167 -16 -109 -36 19 -6 29 -5 35 5 4 7 11 10 15 6 4 -4 14 -1 22 6 13 10 14 9 4 -9 -10 -19 -9 -23 9 -27 13 -4 25 2 36 19 l16 25 26 -23 c14 -12 20 -16 14 -8 -15 16 -17 34 -4 26 5 -4 22 -1 37 4 37 14 42 5 7 -13 l-28 -15 27 1 c16 1 28 6 28 10 0 5 5 5 12 1 8 -5 2 -12 -17 -20 -41 -18 -76 -17 -89 2 -11 14 -13 14 -25 0 -9 -11 -10 -16 -2 -17 15 -2 23 -4 48 -12 32 -12 177 19 220 46 35 22 39 23 78 8 39 -14 43 -13 62 6 l21 21 -52 5 c-35 3 -58 1 -73 -9 -25 -16 -37 -18 -29 -5 5 8 -37 32 -52 30 -4 -1 -27 -5 -52 -11z m94 -28 c13 -12 -31 -22 -64 -15 -20 4 -27 11 -23 21 4 11 15 13 42 8 20 -4 40 -10 45 -14z"/> <path d="M1565 1240 c-3 -6 -3 -15 0 -20 8 -13 -17 -8 -28 5 -5 6 -6 1 -3 -10 3 -12 -6 -42 -23 -72 -16 -29 -28 -53 -25 -53 2 0 18 7 36 16 41 19 84 111 62 132 -8 7 -15 8 -19 2z"/> <path d="M1645 1240 c-3 -5 0 -10 8 -10 8 0 20 -6 26 -14 18 -21 -8 -26 -42 -9 -24 12 -28 12 -34 -3 -4 -10 0 -22 10 -29 24 -17 21 -27 -5 -23 -34 4 -37 -35 -4 -50 28 -12 36 -7 36 23 0 12 7 30 15 41 18 24 18 20 0 -39 -8 -26 -10 -45 -5 -42 4 3 10 -1 12 -7 3 -7 5 1 5 19 0 18 8 51 19 74 13 30 15 44 7 46 -7 3 -9 11 -6 19 6 16 -32 20 -42 4z"/> <path d="M1595 1080 c-9 -15 4 -30 25 -30 10 0 22 5 25 10 4 6 -5 10 -20 10 -15 0 -24 4 -20 10 3 6 4 10 1 10 -3 0 -8 -4 -11 -10z"/> <path d="M2402 976 c9 -40 1 -70 -28 -106 -12 -14 -14 -20 -14 -35 0 -3 -10 0 -22 6 -18 9 -20 9 -12 0 6 -7 32 -14 58 -17 36 -3 46 -1 46 11 0 8 5 15 11 15 6 0 8 -7 5 -16 -4 -9 8 -3 25 14 27 27 30 34 22 59 l-10 28 -7 -32 c-4 -18 -12 -36 -18 -40 -8 -4 -9 0 -4 13 5 10 10 35 13 54 5 32 2 37 -35 61 l-39 26 9 -41z"/> <path d="M2368 970 c3 -21 8 -28 14 -22 12 12 7 44 -8 49 -7 2 -9 -8 -6 -27z"/> <path d="M1970 891 c0 -5 8 -12 18 -15 10 -4 28 -15 39 -25 11 -11 25 -16 31 -12 6 4 -10 18 -39 34 -27 16 -49 24 -49 18z"/> <path d="M1930 870 c0 -11 7 -20 15 -20 8 0 15 6 15 14 0 8 -7 16 -15 20 -10 4 -15 -1 -15 -14z"/> <path d="M2527 870 c-3 -11 -1 -20 4 -20 5 0 9 9 9 20 0 11 -2 20 -4 20 -2 0 -6 -9 -9 -20z"/> <path d="M1970 855 c0 -9 7 -18 15 -21 15 -6 65 -82 65 -99 0 -5 -11 2 -25 15 -29 28 -33 18 -6 -15 13 -17 21 -21 29 -13 16 16 67 -8 80 -38 7 -13 16 -24 21 -24 14 0 -37 90 -72 128 -17 17 -37 32 -45 32 -7 0 -11 4 -7 9 5 9 -31 41 -47 41 -5 0 -8 -7 -8 -15z"/> <path d="M2135 721 c26 -52 46 -66 75 -51 25 13 50 39 50 51 0 15 -81 49 -117 49 l-31 0 23 -49z"/> <path d="M2060 685 c7 -8 24 -15 39 -15 25 1 25 1 -8 15 -42 19 -47 19 -31 0z"/> <path d="M2140 601 c57 -66 121 -104 158 -94 32 8 24 37 -11 41 -16 2 -49 17 -75 33 -25 16 -51 29 -57 29 -5 0 -15 10 -20 22 -6 13 -19 25 -29 26 -14 3 -4 -14 34 -57z"/> <path d="M2230 955 c0 -8 5 -15 10 -15 6 0 10 7 10 15 0 8 -4 15 -10 15 -5 0 -10 -7 -10 -15z"/> <path d="M1360 990 c19 -13 30 -13 30 0 0 6 -10 10 -22 10 -19 0 -20 -2 -8 -10z"/> <path d="M1087 966 c-12 -13 -41 -59 -65 -102 -23 -44 -48 -86 -54 -95 -14 -21 1 -61 49 -130 18 -27 33 -55 33 -64 0 -8 5 -15 10 -15 6 0 10 -8 10 -17 0 -16 2 -16 11 -3 8 12 9 10 4 -7 -3 -12 -1 -25 7 -30 18 -11 267 -11 265 0 -1 5 4 12 12 15 8 3 11 0 7 -7 -10 -16 0 -14 18 5 18 17 22 39 6 29 -6 -3 -1 10 11 30 12 19 30 40 40 46 11 5 17 14 14 20 -4 5 -3 9 2 9 4 0 19 20 32 44 20 40 22 49 11 81 -6 19 -23 43 -36 51 -13 9 -21 20 -18 25 3 5 0 9 -6 9 -6 0 -9 4 -5 9 3 5 0 16 -7 23 -7 7 -21 27 -30 43 -20 37 -82 53 -211 54 -80 1 -90 -1 -110 -23z m311 -57 c18 -36 18 -39 2 -24 -14 13 -34 65 -25 65 2 0 12 -18 23 -41z m-252 -30 c-14 -11 -26 -25 -26 -30 0 -16 23 -10 46 12 22 21 23 21 18 1 -10 -38 -74 -54 -74 -18 0 18 33 56 49 56 8 0 2 -9 -13 -21z m-66 -64 c-25 -27 -24 -68 3 -73 21 -4 46 24 47 51 0 23 20 22 20 -2 0 -22 -44 -71 -64 -71 -19 0 -46 27 -46 48 0 22 42 82 53 75 5 -3 -1 -15 -13 -28z m233 8 c-7 -2 -19 -2 -25 0 -7 3 -2 5 12 5 14 0 19 -2 13 -5z m-123 -13 c-8 -5 -19 -10 -25 -10 -5 0 -3 5 5 10 8 5 20 10 25 10 6 0 3 -5 -5 -10z m-147 -164 c16 -20 26 -36 23 -36 -3 0 -19 19 -36 42 -23 31 -30 51 -29 82 l2 41 6 -46 c4 -27 18 -61 34 -83z"/> <path d="M1420 570 c-6 -11 -8 -20 -6 -20 3 0 10 9 16 20 6 11 8 20 6 20 -3 0 -10 -9 -16 -20z"/> </g> </svg> 